<?xml version="1.0" encoding="utf-8"?>
<!-- Generator: Adobe Illustrator 25.4.1, SVG Export Plug-In . SVG Version: 6.00 Build 0)  -->
<svg version="1.1" id="Layer_1" xmlns="http://www.w3.org/2000/svg" xmlns:xlink="http://www.w3.org/1999/xlink" x="0px" y="0px"
	 viewBox="0 0 964.7 144.9" style="enable-background:new 0 0 964.7 144.9;" xml:space="preserve">
<style type="text/css">
	.st0{fill:#263145;}
	.st1{fill:#FFFFFF;}
	.st2{fill:#04EA88;}
	.st3{fill:#575FF2;}
	.st4{fill:#91F9FC;}
	.st5{fill:#F5F5F5;}
	.st6{fill:#94FCFF;}
	.st7{fill:#606060;}
	.st8{fill:#56B658;}
	.st9{fill:#CDFBE7;}
	.st10{fill:#7D838F;}
	.st11{fill:#D4D6DA;}
	.st12{fill:#3D3DC4;}
	.st13{fill:#DDDFFC;}
	.st14{fill:#6BCBD0;}
	.st15{fill:#EAFEFF;}
	.st16{fill:#D31E1E;}
</style>
<g>
	<g>
		<g>
			<polygon class="st0" points="206.8,10.7 160.2,10.7 118.8,62.8 160.2,114.8 206.8,114.8 165.4,62.8 			"/>
		</g>
		<path class="st2" d="M56,6.7c-31,0-56,25.1-56,56c0,31,25.1,56,56,56c31,0,56-25.1,56-56C112.1,31.8,87,6.7,56,6.7z M56,84.4
			c-12,0-21.6-9.7-21.6-21.6c0-12,9.7-21.6,21.6-21.6c12,0,21.6,9.7,21.6,21.6C77.7,74.7,68,84.4,56,84.4z"/>
	</g>
</g>
<g>
	<g>
		<path class="st0" d="M313.9,63.6c0,13.7-4.1,24.8-12.2,33.2c-8.2,8.4-19.2,12.6-33.1,12.6c-13.9,0-24.9-4.2-33-12.6
			c-8.2-8.4-12.3-19.4-12.3-33.2c0-13.7,4.1-24.9,12.3-33.2c8.1-8.4,19.1-12.6,33-12.6c13.9,0,24.9,4.2,33.1,12.6
			C309.8,38.8,313.9,49.9,313.9,63.6z M297.4,63.6c0-9.1-2.5-16.7-7.7-22.7c-5.2-5.9-12.2-8.9-21.1-8.9c-8.9,0-15.9,3-21.1,8.9
			c-5.2,6-7.7,13.5-7.7,22.7c0,9.1,2.5,16.7,7.7,22.6c5.2,6,12.2,8.9,21.1,8.9c8.9,0,15.9-3,21.1-8.9
			C294.8,80.3,297.4,72.8,297.4,63.6z"/>
		<path class="st0" d="M400.3,19.1l-39.7,44.1l42.3,45h-19.1l-41.4-43.9v43.9h-15.8V19.1h15.8v43.1l39-43.1H400.3z"/>
		<path class="st0" d="M465.4,19.1v13.5h-22.8v62.1h22.8v13.5H404V94.7h22.7V32.6H404V19.1H465.4z"/>
		<path class="st0" d="M551.1,19.1l-39.7,44.1l42.3,45h-19.1l-41.4-43.9v43.9h-15.8V19.1h15.8v43.1l39-43.1H551.1z"/>
		<path class="st0" d="M558,108.2V19.1h69.7v13.5h-53.9v23.3h46v13.2h-46v25.6h53.9v13.5H558z"/>
		<path class="st0" d="M708.9,94.2v14h-69.1V19.1h15.8v75.1H708.9z"/>
		<path class="st0" d="M762.4,19.1l36.1,89.1h-16.5l-7.1-17.7h-45.4l-7.1,17.7h-16.5l36.2-89.1H762.4z M769.2,76.7l-16.8-42.4h-0.6
			L735,76.7H769.2z"/>
		<path class="st0" d="M844.1,108.2h-40.6V19.1h40.3c19.9,0,29.9,8.1,29.9,24.2c0,5.2-2.1,9.9-4.6,12.4c-2.5,2.5-5.3,4.4-7,5.1
			l-1.4,0.4v0.7c0.5,0.1,1.1,0.2,1.9,0.4c0.7,0.2,2.1,0.7,4.2,1.7c2.1,1,3.8,2.2,5.3,3.5c1.6,1.4,2.9,3.5,4.2,6.3
			c1.2,2.8,1.9,6,1.9,9.4C878.3,100.5,867.7,108.2,844.1,108.2z M842.1,56.8c10.1,0,15.1-4.1,15.1-12.4c0-8.3-5-12.4-15.1-12.4
			h-22.8v24.7H842.1z M844.5,95.2c11.5,0,17.3-4.3,17.3-13c0-8.6-5.8-13-17.3-13h-25.2v26H844.5z"/>
		<path class="st0" d="M960.8,46.7h-16.3v-2.4c0-8.6-6.5-13-19.6-13c-12,0-19.6,4-19.6,12c0,5.7,4.7,9.1,11.6,10.7
			c6.9,1.7,15.7,2.8,24.1,5c4.2,1.1,8,2.5,11.4,4.2s6.2,4.2,8.4,7.5c2.2,3.4,3.2,7.4,3.2,12.1c0,8.5-3.5,15-10.6,19.6
			c-7.1,4.7-16.5,7-28.1,7c-11.9,0-21.3-2.4-28.3-7c-7-4.7-10.5-11.3-10.5-20.1v-4.2h16.3v4.3c0,9,7.5,13.5,22.5,13.5
			c14.9,0,22.4-4.4,22.4-13.2c0-5.2-4.8-8.5-11.7-10.1c-6.9-1.6-15.6-2.5-24-4.8c-4.2-1.1-8.1-2.5-11.5-4.2
			c-3.4-1.7-6.2-4.3-8.4-7.8c-2.2-3.4-3.2-7.6-3.2-12.5c0-7.8,3.2-14,9.7-18.6c6.4-4.6,15.2-6.9,26.2-6.9c11.1,0,19.9,2.3,26.3,6.9
			c6.4,4.7,9.6,11.2,9.6,19.6V46.7z"/>
	</g>
</g>
</svg>
