<?xml version="1.0" encoding="utf-8"?>
<!-- Generator: Adobe Illustrator 25.4.1, SVG Export Plug-In . SVG Version: 6.00 Build 0)  -->
<svg version="1.1" id="Layer_1" xmlns="http://www.w3.org/2000/svg" xmlns:xlink="http://www.w3.org/1999/xlink" x="0px" y="0px"
	 viewBox="0 0 206.8 112.1" style="enable-background:new 0 0 206.8 112.1;" xml:space="preserve">
<style type="text/css">
	.st0{fill:#263145;}
	.st1{fill:#FFFFFF;}
	.st2{fill:#04EA88;}
	.st3{fill:#575FF2;}
	.st4{fill:#91F9FC;}
	.st5{fill:#94FCFF;}
	.st6{fill:#56B658;}
	.st7{fill:#CDFBE7;}
	.st8{fill:#7D838F;}
	.st9{fill:#D4D6DA;}
	.st10{fill:#3D3DC4;}
	.st11{fill:#DDDFFC;}
	.st12{fill:#6BCBD0;}
	.st13{fill:#EAFEFF;}
	.st14{fill:#D31E1E;}
</style>
<g>
	<g>
		<g>
			<polygon class="st0" points="206.8,4 160.2,4 118.8,56 160.2,108.1 206.8,108.1 165.4,56 			"/>
		</g>
		<path class="st2" d="M56,0C25.1,0,0,25.1,0,56c0,31,25.1,56,56,56c31,0,56-25.1,56-56C112.1,25.1,87,0,56,0z M56,77.7
			c-12,0-21.6-9.7-21.6-21.6c0-12,9.7-21.6,21.6-21.6c12,0,21.6,9.7,21.6,21.6C77.7,68,68,77.7,56,77.7z"/>
	</g>
</g>
</svg>
